# xmcd
#
# Track frame offsets: 
#        150
#        17025
#        31020
#        45509
#        60082
#        73128
#        91943
#        108948
#        122867
#
# Disc length: 1827 seconds
#
# Revision: 0
# Processed by: cddbd v1.5.2PL0 Copyright (c) Steve Scherf et al.
# Submitted via: ExactAudioCopy v1.3
#
DISCID=67072109
DTITLE=J. D. Shelburne - Two Lane Town
DYEAR=2018
DGENRE=Country
TTITLE0=Born for this
TTITLE1=Good ol' boy good times
TTITLE2=She keeps me up nights
TTITLE3=One less girl
TTITLE4=Young again
TTITLE5=Stuck in my memory
TTITLE6=Lovin' on a dirt road
TTITLE7=Superman
TTITLE8=Make it that far
EXTD=
EXTT0=
EXTT1=
EXTT2=
EXTT3=
EXTT4=
EXTT5=
EXTT6=
EXTT7=
EXTT8=
PLAYORDER=
